<svg id="visual" viewBox="0 0 900 600" width="900" height="600" xmlns="http://www.w3.org/2000/svg" xmlns:xlink="http://www.w3.org/1999/xlink" version="1.1"><path d="M0 361L21.5 365.2C43 369.3 86 377.7 128.8 391.7C171.7 405.7 214.3 425.3 257.2 430.8C300 436.3 343 427.7 385.8 420.2C428.7 412.7 471.3 406.3 514.2 403.2C557 400 600 400 642.8 402.5C685.7 405 728.3 410 771.2 416.5C814 423 857 431 878.5 435L900 439L900 601L878.5 601C857 601 814 601 771.2 601C728.3 601 685.7 601 642.8 601C600 601 557 601 514.2 601C471.3 601 428.7 601 385.8 601C343 601 300 601 257.2 601C214.3 601 171.7 601 128.8 601C86 601 43 601 21.5 601L0 601Z" fill="#2563eb"></path><path d="M0 464L21.5 466.3C43 468.7 86 473.3 128.8 475.8C171.7 478.3 214.3 478.7 257.2 466.2C300 453.7 343 428.3 385.8 423.3C428.7 418.3 471.3 433.7 514.2 432.7C557 431.7 600 414.3 642.8 407.5C685.7 400.7 728.3 404.3 771.2 413.3C814 422.3 857 436.7 878.5 443.8L900 451L900 601L878.5 601C857 601 814 601 771.2 601C728.3 601 685.7 601 642.8 601C600 601 557 601 514.2 601C471.3 601 428.7 601 385.8 601C343 601 300 601 257.2 601C214.3 601 171.7 601 128.8 601C86 601 43 601 21.5 601L0 601Z" fill="#1749ca"></path><path d="M0 501L21.5 495C43 489 86 477 128.8 467C171.7 457 214.3 449 257.2 450.8C300 452.7 343 464.3 385.8 464.3C428.7 464.3 471.3 452.7 514.2 452.7C557 452.7 600 464.3 642.8 466.8C685.7 469.3 728.3 462.7 771.2 465.2C814 467.7 857 479.3 878.5 485.2L900 491L900 601L878.5 601C857 601 814 601 771.2 601C728.3 601 685.7 601 642.8 601C600 601 557 601 514.2 601C471.3 601 428.7 601 385.8 601C343 601 300 601 257.2 601C214.3 601 171.7 601 128.8 601C86 601 43 601 21.5 601L0 601Z" fill="#0030aa"></path><path d="M0 495L21.5 497.2C43 499.3 86 503.7 128.8 504.7C171.7 505.7 214.3 503.3 257.2 500.2C300 497 343 493 385.8 498.5C428.7 504 471.3 519 514.2 524.5C557 530 600 526 642.8 527.5C685.7 529 728.3 536 771.2 536C814 536 857 529 878.5 525.5L900 522L900 601L878.5 601C857 601 814 601 771.2 601C728.3 601 685.7 601 642.8 601C600 601 557 601 514.2 601C471.3 601 428.7 601 385.8 601C343 601 300 601 257.2 601C214.3 601 171.7 601 128.8 601C86 601 43 601 21.5 601L0 601Z" fill="#001586"></path><path d="M0 571L21.5 567.5C43 564 86 557 128.8 555.8C171.7 554.7 214.3 559.3 257.2 562.7C300 566 343 568 385.8 565.3C428.7 562.7 471.3 555.3 514.2 551.7C557 548 600 548 642.8 547.7C685.7 547.3 728.3 546.7 771.2 547.2C814 547.7 857 549.3 878.5 550.2L900 551L900 601L878.5 601C857 601 814 601 771.2 601C728.3 601 685.7 601 642.8 601C600 601 557 601 514.2 601C471.3 601 428.7 601 385.8 601C343 601 300 601 257.2 601C214.3 601 171.7 601 128.8 601C86 601 43 601 21.5 601L0 601Z" fill="#000000"></path></svg>