<svg id="visual" viewBox="0 0 900 600" width="900" height="600" xmlns="http://www.w3.org/2000/svg" xmlns:xlink="http://www.w3.org/1999/xlink" version="1.1"><path d="M0 341L13.7 341C27.3 341 54.7 341 82 328.8C109.3 316.7 136.7 292.3 163.8 286.8C191 281.3 218 294.7 245.2 307.8C272.3 321 299.7 334 327 326.8C354.3 319.7 381.7 292.3 409 290.7C436.3 289 463.7 313 491 326.7C518.3 340.3 545.7 343.7 573 329.5C600.3 315.3 627.7 283.7 654.8 274.5C682 265.3 709 278.7 736.2 277.5C763.3 276.3 790.7 260.7 818 258.3C845.3 256 872.7 267 886.3 272.5L900 278L900 601L886.3 601C872.7 601 845.3 601 818 601C790.7 601 763.3 601 736.2 601C709 601 682 601 654.8 601C627.7 601 600.3 601 573 601C545.7 601 518.3 601 491 601C463.7 601 436.3 601 409 601C381.7 601 354.3 601 327 601C299.7 601 272.3 601 245.2 601C218 601 191 601 163.8 601C136.7 601 109.3 601 82 601C54.7 601 27.3 601 13.7 601L0 601Z" fill="#2145a2"></path><path d="M0 367L13.7 356.2C27.3 345.3 54.7 323.7 82 315.2C109.3 306.7 136.7 311.3 163.8 318.2C191 325 218 334 245.2 340.7C272.3 347.3 299.7 351.7 327 355.5C354.3 359.3 381.7 362.7 409 356.7C436.3 350.7 463.7 335.3 491 329.2C518.3 323 545.7 326 573 333.2C600.3 340.3 627.7 351.7 654.8 349.7C682 347.7 709 332.3 736.2 334.2C763.3 336 790.7 355 818 359.3C845.3 363.7 872.7 353.3 886.3 348.2L900 343L900 601L886.3 601C872.7 601 845.3 601 818 601C790.7 601 763.3 601 736.2 601C709 601 682 601 654.8 601C627.7 601 600.3 601 573 601C545.7 601 518.3 601 491 601C463.7 601 436.3 601 409 601C381.7 601 354.3 601 327 601C299.7 601 272.3 601 245.2 601C218 601 191 601 163.8 601C136.7 601 109.3 601 82 601C54.7 601 27.3 601 13.7 601L0 601Z" fill="#1b3a8c"></path><path d="M0 410L13.7 415.5C27.3 421 54.7 432 82 431C109.3 430 136.7 417 163.8 405.2C191 393.3 218 382.7 245.2 376.3C272.3 370 299.7 368 327 372.5C354.3 377 381.7 388 409 391.3C436.3 394.7 463.7 390.3 491 393.5C518.3 396.7 545.7 407.3 573 406C600.3 404.7 627.7 391.3 654.8 397.3C682 403.3 709 428.7 736.2 441.3C763.3 454 790.7 454 818 441.7C845.3 429.3 872.7 404.7 886.3 392.3L900 380L900 601L886.3 601C872.7 601 845.3 601 818 601C790.7 601 763.3 601 736.2 601C709 601 682 601 654.8 601C627.7 601 600.3 601 573 601C545.7 601 518.3 601 491 601C463.7 601 436.3 601 409 601C381.7 601 354.3 601 327 601C299.7 601 272.3 601 245.2 601C218 601 191 601 163.8 601C136.7 601 109.3 601 82 601C54.7 601 27.3 601 13.7 601L0 601Z" fill="#142f76"></path><path d="M0 456L13.7 455.3C27.3 454.7 54.7 453.3 82 454.7C109.3 456 136.7 460 163.8 457.3C191 454.7 218 445.3 245.2 442C272.3 438.7 299.7 441.3 327 450.5C354.3 459.7 381.7 475.3 409 473C436.3 470.7 463.7 450.3 491 440.3C518.3 430.3 545.7 430.7 573 442.8C600.3 455 627.7 479 654.8 491.5C682 504 709 505 736.2 496.7C763.3 488.3 790.7 470.7 818 461.5C845.3 452.3 872.7 451.7 886.3 451.3L900 451L900 601L886.3 601C872.7 601 845.3 601 818 601C790.7 601 763.3 601 736.2 601C709 601 682 601 654.8 601C627.7 601 600.3 601 573 601C545.7 601 518.3 601 491 601C463.7 601 436.3 601 409 601C381.7 601 354.3 601 327 601C299.7 601 272.3 601 245.2 601C218 601 191 601 163.8 601C136.7 601 109.3 601 82 601C54.7 601 27.3 601 13.7 601L0 601Z" fill="#0d2561"></path><path d="M0 527L13.7 528.8C27.3 530.7 54.7 534.3 82 537.7C109.3 541 136.7 544 163.8 539.8C191 535.7 218 524.3 245.2 521.7C272.3 519 299.7 525 327 529.3C354.3 533.7 381.7 536.3 409 535.7C436.3 535 463.7 531 491 528.8C518.3 526.7 545.7 526.3 573 524.8C600.3 523.3 627.7 520.7 654.8 515.8C682 511 709 504 736.2 506.3C763.3 508.7 790.7 520.3 818 520.2C845.3 520 872.7 508 886.3 502L900 496L900 601L886.3 601C872.7 601 845.3 601 818 601C790.7 601 763.3 601 736.2 601C709 601 682 601 654.8 601C627.7 601 600.3 601 573 601C545.7 601 518.3 601 491 601C463.7 601 436.3 601 409 601C381.7 601 354.3 601 327 601C299.7 601 272.3 601 245.2 601C218 601 191 601 163.8 601C136.7 601 109.3 601 82 601C54.7 601 27.3 601 13.7 601L0 601Z" fill="#071b4c"></path></svg>